<?xml version="1.0" encoding="utf-8"?>
<!-- Generator: Adobe Illustrator 27.5.0, SVG Export Plug-In . SVG Version: 6.00 Build 0)  -->
<svg version="1.1" id="Layer_1" xmlns="http://www.w3.org/2000/svg" xmlns:xlink="http://www.w3.org/1999/xlink" x="0px" y="0px"
	 viewBox="0 0 640 480" style="enable-background:new 0 0 640 480;" xml:space="preserve">
<style type="text/css">
	.st0{fill:#FFFFFF;stroke:#000000;stroke-miterlimit:10;}
	.st1{font-family:'MyriadPro-Regular';}
	.st2{font-size:18px;}
</style>
<path class="st0" d="M281.12,162.75c-0.6-1.25-6.51-13.16-17.97-14.45c-8.56-0.97-16.17,4.45-19.14,8.59
	c-14.29,19.91,32.36,74.51,35.16,77.73h3.91c2.79-3.23,49.45-57.83,35.16-77.73c-2.97-4.14-10.58-9.56-19.14-8.59
	C287.63,149.59,281.72,161.5,281.12,162.75"/>
<polyline class="st0" points="186.98,192.4 261.2,192.4 265.89,171.69 274.09,197.08 277.61,183.55 279.95,191.61 289.33,191.61 
	289.33,184.39 297.22,203.81 301.44,187.75 375.26,187.75 "/>
<text transform="matrix(1 0 0 1 229.3301 253.7656)" class="st1 st2">Health Helper</text>
</svg>
