<?xml version="1.0" encoding="utf-8"?>
<!-- Generator: Adobe Illustrator 27.5.0, SVG Export Plug-In . SVG Version: 6.00 Build 0)  -->
<svg version="1.1" id="Layer_1" xmlns="http://www.w3.org/2000/svg" xmlns:xlink="http://www.w3.org/1999/xlink" x="0px" y="0px"
	 viewBox="0 0 640 480" style="enable-background:new 0 0 640 480;" xml:space="preserve">
<style type="text/css">
	.st0{fill:#FFFFFF;stroke:#000000;stroke-miterlimit:10;}
	.st1{font-family:'MyriadPro-Regular';}
	.st2{font-size:27.3561px;}
</style>
<path class="st0" d="M320,170.32c-0.82-1.91-8.9-20-24.56-21.97c-11.7-1.47-22.1,6.77-26.16,13.06
	c-19.54,30.25,44.23,113.24,48.05,118.14h5.34c3.82-4.9,67.59-87.89,48.05-118.14c-4.06-6.29-14.46-14.53-26.16-13.06
	C328.9,150.32,320.82,168.42,320,170.32"/>
<polyline class="st0" points="191.33,215.38 292.77,215.38 299.18,183.91 310.39,222.5 315.19,201.93 318.4,214.19 331.21,214.19 
	331.21,203.21 342,232.72 347.76,208.32 448.67,208.32 "/>
<text transform="matrix(0.8993 0 0 1 249.2075 308.6455)" class="st1 st2">Health Helper</text>
</svg>
